<?xml version="1.0" encoding="UTF-8"?>
<svg width="104px" height="102px" viewBox="0 0 104 102" version="1.1" xmlns="http://www.w3.org/2000/svg" xmlns:xlink="http://www.w3.org/1999/xlink">
    <!-- Generator: Sketch 51.2 (57519) - http://www.bohemiancoding.com/sketch -->
    <title>Group 21</title>
    <desc>Created with Sketch.</desc>
    <defs></defs>
    <g id="搜索卡片" stroke="none" stroke-width="1" fill="none" fill-rule="evenodd">
        <g id="综合搜索-暂无搜索结果" transform="translate(-660.000000, -277.000000)">
            <g id="Group-21" transform="translate(660.000000, 277.000000)">
                <ellipse id="Oval-4" fill="#D8D8D8" opacity="0.372098214" cx="52" cy="92" rx="52" ry="10"></ellipse>
                <g id="Group-17" transform="translate(18.000000, 8.000000)" stroke="#EBEBEB" stroke-width="2">
                    <rect id="Rectangle-6" fill="#F8F8F8" x="1" y="1" width="68" height="85" rx="12"></rect>
                    <rect id="Rectangle-6-Copy-5" fill="#FFFFFF" x="8.31343284" y="7.28915663" width="53.3731343" height="73.4698795" rx="9"></rect>
                </g>
                <g id="Group-16" transform="translate(51.000000, 33.000000)" fill="#EBEBEB">
                    <rect id="Rectangle-15" x="0" y="5.41666667" width="13" height="2.16666667" rx="1.08333333"></rect>
                    <rect id="Rectangle-15-Copy" transform="translate(6.500000, 6.500000) rotate(-270.000000) translate(-6.500000, -6.500000) " x="0" y="5.41666667" width="13" height="2.16666667" rx="1.08333333"></rect>
                </g>
                <g id="Group-16-Copy-3" transform="translate(40.000000, 64.000000)" fill="#EBEBEB">
                    <rect id="Rectangle-15" x="0" y="3.33333333" width="8" height="1.33333333" rx="0.666666667"></rect>
                    <rect id="Rectangle-15-Copy" transform="translate(4.000000, 4.000000) rotate(-270.000000) translate(-4.000000, -4.000000) " x="0" y="3.33333333" width="8" height="1.33333333" rx="0.666666667"></rect>
                </g>
                <g id="Group-16-Copy-2" transform="translate(6.000000, 25.000000)" fill="#EBEBEB">
                    <rect id="Rectangle-15" x="0" y="2.5" width="6" height="1" rx="0.5"></rect>
                    <rect id="Rectangle-15-Copy" transform="translate(3.000000, 3.000000) rotate(-270.000000) translate(-3.000000, -3.000000) " x="0" y="2.5" width="6" height="1" rx="0.5"></rect>
                </g>
                <path d="M50.5277778,3.5 L50.5277778,5.11363636 L38.5,5.11363636 C36.9812169,5.11363636 35.75,6.3448533 35.75,7.86363636 L35.75,8.5 C35.75,10.0187831 36.9812169,11.25 38.5,11.25 L69.5,11.25 C71.0187831,11.25 72.25,10.0187831 72.25,8.5 L72.25,7.86363636 C72.25,6.3448533 71.0187831,5.11363636 69.5,5.11363636 L58.5277778,5.11363636 L58.5277778,3.5 C58.5277778,1.98121694 57.2965608,0.75 55.7777778,0.75 L53.2777778,0.75 C51.7589947,0.75 50.5277778,1.98121694 50.5277778,3.5 Z" id="Combined-Shape" stroke="#E5E5E5" stroke-width="1.5" fill="#FFFFFF"></path>
                <circle id="Oval-5" stroke="#E5E5E5" fill="#FFFFFF" cx="54.5" cy="4.5" r="1.5"></circle>
            </g>
        </g>
    </g>
</svg>